# xmcd
#
# Track frame offsets:
#	150
#	11263
#	22573
#	35271
#	46594
#	59127
#	75107
#	87891
#	97382
#	107703
#	121639
#	138287
#	151267
#	160243
#	178563
#	203745
#	224800
#	240337
#	251049
#	262448
#	276331
#	287132
#	301547
#	314817
#	327374
#
# Disc length: 4537 seconds
#
# Revision: 2
# Processed by: cddbd v1.4PL0 Copyright (c) Steve Scherf et al.
# Submitted via: EasyCDDAExtractor 5.0.7
#
DISCID=5511b719
DTITLE=Marty Robbins - Marty! [CD1]
DYEAR=1900
DGENRE=Country
TTITLE0=Love Is Blue
TTITLE1=A White Sport Coat (And A Pink Carnation)
TTITLE2=Streets Of Laredo
TTITLE3=Love Is A Hurting Thing
TTITLE4=Tonight Carmen
TTITLE5=My Woman, My Woman, My Wife
TTITLE6=It's A Sin
TTITLE7=Tall Handsome Stranger
TTITLE8=Bouquet Of Roses
TTITLE9=Love Me Tender
TTITLE10=Ballad Of The Alamo
TTITLE11=The Hanging Tree
TTITLE12=When The Roll Is Called Up Yonger
TTITLE13=You Gave Me A Mountain
TTITLE14=San Angelo
TTITLE15=El Paso
TTITLE16=The Strawberry Roan
TTITLE17=She Was Only Seventeen (He Was One Year More)
TTITLE18=The Girl With Gardenias In Her Hair
TTITLE19=Little Rich Girl
TTITLE20=Red River Valley
TTITLE21=Cool Water
TTITLE22=Old Red
TTITLE23=I'm So Lonesome I Could Cry
TTITLE24=Devil Woman
EXTD=
EXTT0=
EXTT1=
EXTT2=
EXTT3=
EXTT4=
EXTT5=
EXTT6=
EXTT7=
EXTT8=
EXTT9=
EXTT10=
EXTT11=
EXTT12=
EXTT13=
EXTT14=
EXTT15=
EXTT16=
EXTT17=
EXTT18=
EXTT19=
EXTT20=
EXTT21=
EXTT22=
EXTT23=
EXTT24=
PLAYORDER=
